<?xml version="1.0" encoding="UTF-8"?>
<svg width="144px" height="25px" viewBox="0 0 144 25" version="1.1" xmlns="http://www.w3.org/2000/svg" xmlns:xlink="http://www.w3.org/1999/xlink">
    <!-- Generator: Sketch 63.1 (92452) - https://sketch.com -->
    <title>tsc-logo-white</title>
    <desc>Created with Sketch.</desc>
    <g id="tsc-logo-white" stroke="none" stroke-width="1" fill="none" fill-rule="evenodd">
        <rect fill="#000000" x="0" y="0" width="144" height="25"></rect>
        <g id="logo-TESCO-SW" transform="translate(1.460315, 2.212247)" fill="#FFFFFF">
            <g id="Group" transform="translate(32.456153, 6.446715)">
                <path d="M60.5677765,7.79800832 C60.5677765,4.91267836 62.9771106,2.664239 65.6539834,2.664239 C68.3260256,2.664239 70.7409334,4.91267836 70.7409334,7.79800832 C70.7409334,10.6825951 68.3260256,12.9306629 65.6539834,12.9306629 C62.9771106,12.9306629 60.5677765,10.6825951 60.5677765,7.79800832 M57.6791023,7.79800832 C57.6791023,12.1525713 61.2035523,15.540651 65.6539834,15.540651 C70.0988407,15.540651 73.6281213,12.1525713 73.6281213,7.79800832 C73.6281213,3.44381688 70.0988407,0.0605677765 65.6539834,0.0605677765 C61.2035523,0.0605677765 57.6791023,3.44381688 57.6791023,7.79800832 M53.9874405,10.8747027 C53.0410226,12.1525713 51.5524673,12.9306629 49.8710612,12.9306629 C47.1960464,12.9306629 44.7859691,10.6825951 44.7859691,7.79800832 C44.7859691,4.91267836 47.1960464,2.664239 49.8710612,2.664239 C51.5524673,2.664239 52.9923454,3.44381688 53.9380202,4.81941141 L56.2102408,3.11348098 C54.5537307,1.03225327 52.2376635,0.0605677765 49.8710612,0.0605677765 C45.4213734,0.0605677765 41.8972949,3.44381688 41.8972949,7.79800832 C41.8972949,12.1525713 45.4213734,15.540651 49.8710612,15.540651 C52.2376635,15.540651 54.5537307,14.5637634 56.2102408,12.4829073 L53.9874405,10.8747027 Z M27.2536415,12.7890904 C29.1212099,14.7562426 31.5364893,15.540651 33.6166023,15.540651 C37.0217747,15.540651 40.1720422,13.6667658 40.1720422,10.5644322 C40.1720422,4.39060642 30.5900713,7.72406361 30.5900713,4.39060642 C30.5900713,3.48803508 31.4432224,2.37849287 33.7098692,2.37849287 C35.1542063,2.37849287 36.3863704,2.82699168 37.7318668,4.15353746 L39.7677616,2.32907253 C38.3037307,0.839774078 36.3124257,0.0605677765 33.8532996,0.0605677765 C30.4715369,0.0605677765 27.7021403,1.88020214 27.7021403,4.52809156 C27.7021403,10.588585 37.283368,7.39409929 37.283368,10.7071195 C37.283368,12.1273038 35.8193371,12.9068817 33.7343936,12.9306629 C32.0095125,12.9306629 30.4470125,12.103151 29.3333829,10.9192925 L27.2536415,12.7890904 Z M14.3348692,15.2288942 L25.7398187,15.2288942 L25.7398187,12.6259661 L17.0797414,12.6259661 L17.0797414,8.90755054 L23.1127378,8.90755054 L23.1127378,6.30313615 L17.0797414,6.30313615 L17.0797414,2.97005054 L25.7398187,2.97005054 L25.7398187,0.36637931 L14.3348692,0.36637931 L14.3348692,15.2288942 Z M4.68415577,15.2288942 L7.42902794,15.2288942 L7.42902794,2.97005054 L11.7817331,2.97005054 L11.7817331,0.36637931 L0.332193817,0.36637931 L0.332193817,2.97005054 L4.68415577,2.97005054 L4.68415577,15.2288942 Z" id="Shape"></path>
            </g>
            <g id="Group" transform="translate(107.153686, 6.507283)">
                <path d="M20.4369798,15.4800832 L24.0093639,6.85939358 L27.4398038,15.4800832 L33.6604489,0.305811534 L30.7472503,0.305811534 L27.4398038,9.10783294 L24.0093639,1.10954221 L20.6238853,9.10783294 L17.2662753,0.305811534 L14.3787158,0.305811534 L20.4369798,15.4800832 Z M0.301352556,12.7285226 C2.16966409,14.6956748 4.58457194,15.4800832 6.66431332,15.4800832 C10.0702289,15.4800832 13.2197533,13.606198 13.2197533,10.5038644 C13.2197533,4.33003864 3.63815398,7.66349584 3.63815398,4.33003864 C3.63815398,3.4274673 4.49130499,2.31792509 6.75869501,2.31792509 C8.20266052,2.31792509 9.43482461,2.7664239 10.780321,4.09296968 L12.8158442,2.26850476 C11.3525565,0.779206302 9.36013674,0 6.90063912,0 C3.52036266,0 0.750222949,1.81963436 0.750222949,4.46752378 C0.750222949,10.5280172 10.3314507,7.33353151 10.3314507,10.6465517 C10.3314507,12.066736 8.8681629,12.8463139 6.78321938,12.8704667 C5.05759512,12.8704667 3.49509512,12.0425832 2.38220868,10.8587247 L0.301352556,12.7285226 Z" id="Shape"></path>
            </g>
            <g id="Group" transform="translate(16.235218, 16.199486) scale(-1, 1) rotate(-30.690019) translate(-16.235218, -16.199486) translate(6.735218, 7.199486)">
                <polygon id="Path" points="0.148879252 2.91885199 7.17882709 2.91885199 18.5919487 17.5205133 10.7697894 0.0532165077"></polygon>
            </g>
            <g id="Group" transform="translate(0.197310, 16.158368)">
                <polygon id="Path" points="33.0707491 6.30648038 0.148260999 6.30648038 22.8258769 0"></polygon>
            </g>
            <g id="Group" transform="translate(13.779089, 10.268079) scale(-1, 1) rotate(-39.008088) translate(-13.779089, -10.268079) translate(9.779089, 0.768079)">
                <polygon id="Path" points="0.367152131 1.96490853 4.32895298 1.96490853 7.04595614 18.3014846 7.77425568 0.0557233213"></polygon>
            </g>
        </g>
    </g>
</svg>